<?xml version="1.0" encoding="UTF-8"?>
<svg version="1.1" viewBox="0 0 22 16" xmlns="http://www.w3.org/2000/svg">
 <g fill="none" stroke="#fff" stroke-linecap="round" stroke-linejoin="round" stroke-width="2.5">
  <path d="m7.4451 1.25c-0.17961 0.11343-0.36105 0.24243-0.55703 0.3298-0.25951 0.11569-0.54146 0.18903-0.78914 0.3298-0.18488 0.10508-0.37791 0.21667-0.55703 0.3298-0.28757 0.18162 0.015646 0.00557-0.18568 0.15391-0.086497 0.063731-0.25611 0.15804-0.32494 0.24186-0.031863 0.038809-0.039867 0.091645-0.069629 0.13192-0.025098 0.033966-0.068563 0.053452-0.09284 0.087949-0.038384 0.054544-0.058914 0.11876-0.09284 0.17589-0.13376 0.22526-0.29449 0.44153-0.44099 0.65961-0.07248 0.1079-0.051063 0.07036-0.18568 0.19788-0.040221 0.053343-0.054455 0.12135-0.092841 0.17589-0.039566 0.056222-0.09593 0.10024-0.13926 0.15391-0.057365 0.071065-0.10832 0.14658-0.16247 0.21987-0.015473 0.036645-0.022705 0.077484-0.04642 0.10994-0.090786 0.12423-0.2021 0.23381-0.30173 0.35179-0.52443 0.621-1.1393 1.169-1.6479 1.803-0.24465 0.30493-0.044983 0.085906-0.2321 0.35179-0.042915 0.060981-0.10028 0.11259-0.13926 0.1759-0.032145 0.052204-0.014273 0.12369-0.04642 0.1759-0.00774 0.10994-0.041165 0.22095-0.023209 0.3298 0.021531 0.13054 0.085839 0.25173 0.13926 0.37378 0.31429 0.71805 0.17192 0.36493 0.62667 1.0334 0.1071 0.15743 0.19504 0.32604 0.30173 0.48371 0.086879 0.1284 0.19569 0.243 0.27852 0.37378 0.10326 0.16304 0.17847 0.34088 0.27852 0.5057 0.15125 0.24918 0.44072 0.63 0.62667 0.8355 0.22785 0.25183 0.51411 0.45237 0.74272 0.70359 0.02746 0.03017 0.34189 0.51879 0.34815 0.52768 0.10349 0.14704 0.31764 0.41084 0.44099 0.52768 0.27173 0.25742 0.58471 0.45632 0.88197 0.6816 0.28182 0.21357-0.10392 0.01569 0.37136 0.28583 0.027353 0.01554 0.063222 0.01077 0.09284 0.02199 0.0046 0.0018 0.21023 0.22344 0.23209 0.24186 0.056661 0.04772 0.21021 0.13317 0.25531 0.17589 0.043698 0.0414 0.072351 0.11251 0.11605 0.15391 0.045546 0.04315 0.099819 0.05059 0.13926 0.08795"/>
  <path d="m1.3409 7.4063c0.085102 0.07329 0.14796 0.18076 0.25531 0.21987 0.10832 0.039465 0.23209 0 0.34815 0h1.4158c2.7788 0-0.70426 0.034736 2.9245-0.15391 4.5085-0.095975-0.00852 0.047443 3.528-0.1759 0.20843-0.013163 0.41787 0.00558 0.62667 0 2.1892-0.058419 0.02673-0.020295 1.7407-0.087949 0.34012-0.013425 0.68107 0.01216 1.0212 0 0.20161-0.00721 0.40184-0.037029 0.60346-0.043974 0.57862-0.019932 1.1618 0.0093 1.7407 0 0.47966-0.0077 0.95965-0.00418 1.439-0.021987 0.14769-0.00549 0.29337-0.036804 0.44099-0.043974 0.51581-0.025057 1.2659-0.014109 1.7872 0 0.08929 0.00241 0.553 0.017685 0.7195 0.043974 0.07061 0.011149 0.21793 0.058024 0.30173 0.065961 0.15083 0.014289 0.31405 0 0.4642 0"/>
 </g>
</svg>
