<?xml version="1.0" encoding="UTF-8"?>
<svg version="1.1" viewBox="0 0 30 30" xmlns="http://www.w3.org/2000/svg">
 <g fill="none" stroke="#81171d" stroke-linecap="round" stroke-width="2.5" stroke-linejoin="round">
  <path d="m28.457 16.824c-0.21672 2.9271-1.7526 5.5125-3.8408 7.3022-2.3828 2.0421-5.7678 3.1429-8.9047 3.0557-4.1864-0.11638-8.7595-1.6908-11.639-4.7319-1.8086-1.9102-2.5631-4.4723-2.5687-7.4618-0.0056-2.9896 0.89277-6.3846 3.0673-8.1737 2.1581-1.7756 5.0845-3.0351 7.7909-3.4032 2.4115-0.32798 4.222-0.22365 6.966 0.17463l-4.0215-0.5468c8.1714-1.551 11.089 4.8758 11.873 6.7962 1.0891 2.6678 1.4567 4.573 1.2778 6.9888z"/>
  <path d="m7.2859 15.176c0.79417 0.06165 1.9873 0.02969 2.8052 0.14176 1.4945 0.20477 2.2548 0.11102 3.705 0.26885 0.95732 0.10419 2.0663 0.05175 3.0238 0.06582 1.2364 0.01817 2.222 0.03182 3.4565 0.06649 0.93218 0.02618 1.4496 0.0029 2.2084 0.08002"/>
  <path d="m14.468 7.7583c-0.0778 0.79276-0.21946 1.9116-0.2735 2.8515-0.08659 1.506-0.13202 1.8788-0.31933 3.3255-0.12366 0.955-0.06322 2.2403-0.0029 3.196 0.08109 1.2855 0.04738 1.7979-0.13684 3.106-0.13004 0.92343-0.15684 1.6234-0.24939 2.3805"/>
 </g>
</svg>
