<?xml version="1.0" encoding="UTF-8"?>
<svg version="1.1" viewBox="0 0 30 30" xmlns="http://www.w3.org/2000/svg">
 <g fill="none" stroke="#81171d" stroke-linecap="round" stroke-linejoin="round" stroke-width="2.5">
  <path d="m28.457 16.824c-0.21672 2.9271-1.7526 5.5125-3.8408 7.3022-2.3828 2.0421-5.7678 3.1429-8.9047 3.0557-4.1864-0.11638-8.7595-1.6908-11.639-4.7319-1.8086-1.9102-2.5631-4.4723-2.5687-7.4618-0.0056-2.9896 0.89277-6.3846 3.0673-8.1737 2.1581-1.7756 5.0845-3.0351 7.7909-3.4032 2.4115-0.32798 4.222-0.22365 6.966 0.17463l-4.0215-0.5468c8.1714-1.551 11.089 4.8758 11.873 6.7962 1.0891 2.6678 1.4567 4.573 1.2778 6.9888z"/>
  <path d="m22.069 19.707c-0.32685-0.56573-0.90774-1.3597-1.2093-1.9642-0.55109-1.1044-0.97416-1.5775-1.5384-2.6309-0.37246-0.69536-0.92877-1.4232-1.3663-2.0781-0.56497-0.84583-1.0159-1.5197-1.5681-2.3717-0.41696-0.64332-0.67566-0.98342-0.97482-1.5322"/>
  <path d="m8.2972 19.094c0.39686-0.52007 0.97869-1.2397 1.4231-1.8735 0.71223-1.0156 0.90487-1.2562 1.66-2.1848 0.49846-0.61299 1.0148-1.5405 1.3883-2.2371 0.5024-0.93693 0.74762-1.2805 1.4405-2.1135 0.48911-0.58799 0.81099-1.0661 1.2024-1.5546"/>
 </g>
</svg>
